<?xml version="1.0" encoding="utf-8"?>
<!-- Generator: Adobe Illustrator 26.0.1, SVG Export Plug-In . SVG Version: 6.00 Build 0)  -->
<svg version="1.1" xmlns="http://www.w3.org/2000/svg" xmlns:xlink="http://www.w3.org/1999/xlink" x="0px" y="0px"
	 viewBox="0 0 2124.85 852.66" style="enable-background:new 0 0 2124.85 852.66;" xml:space="preserve">
<style type="text/css">
	.st0{fill:#3C2415;stroke:#3C2415;stroke-width:0.25;stroke-miterlimit:10;}
	.st1{font-family:'PalaceScriptMT';}
	.st2{font-size:400px;}
	.st3{fill:none;stroke:#3C2415;stroke-width:4;stroke-miterlimit:10;}
	.st4{fill:#8A4F9F;stroke:url(#SVGID_1_);stroke-width:6;stroke-miterlimit:10;}
	.st5{opacity:0.3;fill:#733997;}
	.st6{fill:#552D86;stroke:url(#SVGID_00000073704486379302971560000006989133796474864536_);stroke-width:6;stroke-miterlimit:10;}
	.st7{fill:#8E53A0;stroke:#D4AF37;stroke-width:6;stroke-miterlimit:10;}
	
		.st8{fill:url(#SVGID_00000040549510492153074480000003057975767673709211_);stroke:url(#SVGID_00000150813019330842676000000011999083330545010321_);stroke-width:6;stroke-linecap:round;stroke-linejoin:round;stroke-miterlimit:10;}
	.st9{display:none;fill:none;stroke:#BE1E2D;stroke-width:4;stroke-miterlimit:10;}
	.st10{fill:#9155A2;stroke:url(#SVGID_00000147932949674473430950000015608133782433349774_);stroke-width:6;stroke-miterlimit:10;}
	.st11{fill:#552D86;stroke:#D4AF37;stroke-width:6;stroke-linecap:round;stroke-linejoin:round;stroke-miterlimit:10;}
</style>
<g id="Layer_1">
	<text transform="matrix(1 0 0 1 619.6522 493.748)" class="st0 st1 st2">La Concept</text>
	<g>
		<g>
			<path d="M1057.41,536.74h20.52v1.85h-17.9v9.77h16.79v1.85h-16.79v12.43h-2.61V536.74z"/>
			<path d="M1105.8,536.74v15.69c0,6.88,5.08,8.66,9.87,8.66c5.66,0,9.87-1.81,9.87-8.66v-15.69h2.66v15.58
				c0,8.1-5.61,10.62-12.63,10.62c-6.68,0-12.48-2.77-12.48-10.29v-15.91H1105.8z"/>
			<path d="M1159.51,550.54v12.1h-2.66v-25.9h12.14c6.68,0,10.21,2.74,10.21,6.81c0,3.29-2.56,5.44-6.34,6.07
				c3.48,0.63,5.81,2.37,5.81,6.77v1c0,1.81-0.19,4.26,0.44,5.25h-2.66c-0.63-1.11-0.48-3.18-0.48-5.4v-0.67
				c0-4.26-1.65-6.03-8.13-6.03H1159.51z M1159.51,548.69h8.18c5.95,0,8.71-1.7,8.71-5.11c0-3.18-2.71-5-7.98-5h-8.9V548.69z"/>
			<path d="M1206.6,562.64v-25.9h3.87c5.27,6.22,17.66,20.68,19.79,23.5h0.05c-0.29-3.74-0.24-7.55-0.24-11.77v-11.73h2.66v25.9
				h-3.58c-5.03-5.99-17.61-21.05-20.03-23.9h-0.05c0.24,3.4,0.19,7.18,0.19,11.88v12.03H1206.6z"/>
			<path d="M1264.18,536.74v25.9h-2.61v-25.9H1264.18z"/>
			<path d="M1299.94,538.59h-11.37v-1.85h25.45v1.85h-11.42v24.05h-2.66V538.59z"/>
			<path d="M1340.93,536.74v15.69c0,6.88,5.08,8.66,9.87,8.66c5.66,0,9.87-1.81,9.87-8.66v-15.69h2.66v15.58
				c0,8.1-5.61,10.62-12.63,10.62c-6.68,0-12.48-2.77-12.48-10.29v-15.91H1340.93z"/>
			<path d="M1394.64,550.54v12.1h-2.66v-25.9h12.15c6.68,0,10.21,2.74,10.21,6.81c0,3.29-2.56,5.44-6.34,6.07
				c3.48,0.63,5.81,2.37,5.81,6.77v1c0,1.81-0.19,4.26,0.44,5.25h-2.66c-0.63-1.11-0.48-3.18-0.48-5.4v-0.67
				c0-4.26-1.64-6.03-8.13-6.03H1394.64z M1394.64,548.69h8.18c5.95,0,8.71-1.7,8.71-5.11c0-3.18-2.71-5-7.98-5h-8.9V548.69z"/>
			<path d="M1461.61,549.92h-17.27v10.88h18.92l-0.39,1.85h-21.15v-25.9h20.76v1.85h-18.14v9.47h17.27V549.92z"/>
		</g>
	</g>
	<line class="st3" x1="1559.23" y1="552.04" x2="1793.94" y2="552.04"/>
	<line class="st3" x1="629.15" y1="552.04" x2="1037.48" y2="552.04"/>
	<linearGradient id="SVGID_1_" gradientUnits="userSpaceOnUse" x1="228.1134" y1="289.643" x2="393.4978" y2="289.643">
		<stop  offset="5.027686e-03" style="stop-color:#A67C00"/>
		<stop  offset="0.5145" style="stop-color:#D4AF37"/>
		<stop  offset="1" style="stop-color:#D4AF37"/>
	</linearGradient>
	<path class="st4" d="M387.93,373.65c-12.27,11.4-62.56,8.12-105.39-37.99s-59.8-122.39-47.52-133.8
		c12.27-11.4,46.17,34.4,89.01,80.5S400.2,362.25,387.93,373.65z"/>
	<path class="st5" d="M359.79,355.7c0.19-0.64,0-1.33-0.51-1.77c-5.03-4.29-22.17-21.99-31.64-20.97
		c-10.49,1.13,10.56,3.26,15.94,21.69c4.43,15.17-40.7-27.11-56.79-42.53c-1.34-1.28-3.46,0.22-2.7,1.9
		c2.86,6.34,7.86,15.34,14.99,20.78c6.21,4.73,14.2,10.81,20.42,15.54c1.56,1.19,0.17,3.64-1.65,2.91h0
		c-1.94-0.78-3.28,1.97-1.48,3.03l34.93,20.34c0.94,0.55,2.15,0.07,2.46-0.97L359.79,355.7z"/>
	
		<linearGradient id="SVGID_00000150068234489863063740000008602449966914946467_" gradientUnits="userSpaceOnUse" x1="455.5244" y1="406.5666" x2="575.1091" y2="406.5666">
		<stop  offset="5.027292e-03" style="stop-color:#A67C00"/>
		<stop  offset="0.5145" style="stop-color:#D4AF37"/>
		<stop  offset="1" style="stop-color:#F5E07A"/>
	</linearGradient>
	
		<path style="fill:#552D86;stroke:url(#SVGID_00000150068234489863063740000008602449966914946467_);stroke-width:6;stroke-miterlimit:10;" d="
		M570.76,371.34c-9.73-14.96-36.03,4.91-74.39,17.04c-40.77,12.89-44.34,17.32-30.61,37.42c10.07,14.74,35.29,37.82,56.13,3.4
		C534.91,407.66,580.49,386.31,570.76,371.34z"/>
	
		<ellipse transform="matrix(0.9619 -0.2734 0.2734 0.9619 -126.1048 132.5358)" class="st7" cx="412.48" cy="518.72" rx="16.56" ry="50.03"/>
	
		<linearGradient id="SVGID_00000129901814668675961410000001723394977016110748_" gradientUnits="userSpaceOnUse" x1="417.8482" y1="364.6548" x2="534.7376" y2="523.1324">
		<stop  offset="0" style="stop-color:#9EC13C"/>
		<stop  offset="0.034" style="stop-color:#9BBB3F"/>
		<stop  offset="0.0812" style="stop-color:#92A947"/>
		<stop  offset="0.1361" style="stop-color:#838B54"/>
		<stop  offset="0.1967" style="stop-color:#6E6267"/>
		<stop  offset="0.2615" style="stop-color:#542E7E"/>
		<stop  offset="0.2687" style="stop-color:#512881"/>
	</linearGradient>
	
		<linearGradient id="SVGID_00000037659228149942664470000008971797513101937556_" gradientUnits="userSpaceOnUse" x1="351.2947" y1="420.6678" x2="554.2168" y2="420.6678">
		<stop  offset="5.027558e-03" style="stop-color:#A67C00"/>
		<stop  offset="0.5145" style="stop-color:#D4AF37"/>
		<stop  offset="1" style="stop-color:#F5E07A"/>
	</linearGradient>
	
		<path style="fill:url(#SVGID_00000129901814668675961410000001723394977016110748_);stroke:url(#SVGID_00000037659228149942664470000008971797513101937556_);stroke-width:6;stroke-linecap:round;stroke-linejoin:round;stroke-miterlimit:10;" d="
		M369.26,338.15c1.25-2.75,2.78-5.35,4.57-7.78c4.07-5.51,12.48-16.65,23.9-30.43c16.44-19.84,28.91-37.42,52.16-17.01
		c23.24,20.41,35.15,22.11,30.05,30.61s-38.55-5.67-45.35,11.34c-6.8,17.01,21.54,23.36,15.31,61
		c-6.24,37.64,40.25,50.68,60.66,68.82c20.41,18.14,27.21,51.59,30.61,74.27c3.4,22.68,16.44,15.31,6.24,27.78
		c-10.2,12.47-66.9,19.84-99.21-11.34c-24.75-23.88-69.44-107.26-89.02-145.01c-6.12-11.8-6.48-25.76-0.98-37.87L369.26,338.15z"/>
	<path class="st9" d="M780.1,423.11c0,0,11.79-9.25,26.64-34.19c13.18-22.14,28.91-37.42,52.16-17.01s35.15,22.11,30.05,30.61
		s-38.55-5.67-45.35,11.34c-6.8,17.01,37.17,72.06,3.4,54.3c-12.82-6.74-22.66-5.54-33.48,10.25c-16.7,24.39-48.6,3.22-48.6,3.22
		L780.1,423.11z"/>
	
		<linearGradient id="SVGID_00000008869638823820879090000014953159101530871450_" gradientUnits="userSpaceOnUse" x1="193.4209" y1="471.8133" x2="366.3102" y2="471.8133">
		<stop  offset="0" style="stop-color:#F5E07A"/>
		<stop  offset="0.4966" style="stop-color:#D4AF37"/>
		<stop  offset="0.7467" style="stop-color:#BA9218"/>
		<stop  offset="0.9704" style="stop-color:#A67C00"/>
	</linearGradient>
	
		<path style="fill:#9155A2;stroke:url(#SVGID_00000008869638823820879090000014953159101530871450_);stroke-width:6;stroke-miterlimit:10;" d="
		M340.58,504.45c35.2-50.27,20.99-104.92,13.25-126.91c-1.11-3.15-10.37-6.57-14.38-6.87c-21.62-1.64-71.94,31.52-100.95,73.43
		c-34.93,50.46-51.27,112.22-36.81,126.68C212.06,581.16,305.37,554.72,340.58,504.45z"/>
	<path class="st5" d="M335.98,478.03l-8,16.93c-6.94,11.51-25.06,31-35.62,39.31l-61.73,32.91l9.05-2.2l6.33-2.17l11.34-3.59
		l16.52-7.28l9.56-4.82l6.9-3.81l2.94-1.96l2.75-1.61l6.26-3.67l18.28-13.89l14.52-15.5l10.25-15.15L335.98,478.03z"/>
	<path class="st5" d="M316.27,380.07c-1.22,0.5-1.7,2.89-0.38,2.92c18.05,0.44,9.54,10.25,9.12,12.34
		c-0.57,2.83-23.37,21.95-23.37,23.08c0,0.96,22.58-6.12,32.42-11.13c0.88-0.45,1.82,0.51,1.35,1.38l-8,15.17
		c-0.44,0.83,0.39,1.76,1.27,1.42l29.82-11.51c0.47-0.18,0.73-0.67,0.63-1.16l-5.44-25.42c-0.59-2.49-2.06-8.96-4.35-10.11
		l-6.8-2.66c-3.21-1.45-8.82-0.76-13.47,0.77l-5.25,1.49c-0.05,0.01-0.1,0.03-0.15,0.05L316.27,380.07z"/>
	<path class="st5" d="M220.77,532.74c1.72,1.23-6.58,14.09-8.51,19.49c-3.4,9.54-9.79,15.4-10.51,13.41
		c-0.18-0.51-1.25-3.42-1.47-4.41c-0.19-0.85-0.31-1.68-0.38-2.04c-0.73-3.75,3.88-8.25,6.13-11.41
		C209.36,543.12,219.05,531.51,220.77,532.74z"/>
	<path class="st11" d="M419.83,386.68c22.11,11.34-14.17,38.55-14.17,60.46c0,40.46-29.22,61.99-35.15,61.99
		c-12.52,0-45.35-47.38-45.35-61.99c0-14.61,10.3-24.56,22.68-26.46C368.24,417.55,406.82,380.01,419.83,386.68z"/>
</g>
<g id="Layer_2">
</g>
</svg>
